# Blender v2.74 (sub 0) OBJ File: 'amber_bomb.blend'
# www.blender.org
mtllib default_amber_bomb.mtl
o Cylinder_Cylinder.001
v -0.154373 0.200000 0.031096
v -0.154373 0.200000 -0.631096
v -0.151407 0.171990 0.031096
v -0.151407 0.171990 -0.631096
v -0.142622 0.145056 0.031096
v -0.142622 0.145056 -0.631096
v -0.128356 0.120234 0.031096
v -0.128356 0.120234 -0.631096
v -0.109158 0.098477 0.031096
v -0.109158 0.098477 -0.631096
v -0.085765 0.080621 0.031096
v -0.085765 0.080621 -0.631096
v -0.059076 0.067353 0.031096
v -0.059076 0.067353 -0.631096
v -0.030117 0.059183 0.031096
v -0.030117 0.059183 -0.631096
v 0.000000 0.056424 0.031096
v -0.000000 0.056424 -0.631096
v 0.030117 0.059183 0.031096
v 0.030117 0.059183 -0.631096
v 0.059076 0.067353 0.031096
v 0.059076 0.067353 -0.631096
v 0.085765 0.080621 0.031096
v 0.085765 0.080621 -0.631096
v 0.109158 0.098477 0.031096
v 0.109158 0.098477 -0.631096
v 0.128357 0.120234 0.031096
v 0.128356 0.120234 -0.631096
v 0.142622 0.145056 0.031096
v 0.142622 0.145056 -0.631096
v 0.151407 0.171990 0.031096
v 0.151407 0.171990 -0.631096
v 0.154373 0.200000 0.031096
v 0.154373 0.200000 -0.631096
v 0.151407 0.228011 0.031096
v 0.151407 0.228011 -0.631096
v 0.142622 0.254945 0.031096
v 0.142622 0.254945 -0.631096
v 0.128356 0.279767 0.031096
v 0.128356 0.279767 -0.631096
v 0.109158 0.301524 0.031096
v 0.109158 0.301524 -0.631096
v 0.085765 0.319380 0.031096
v 0.085765 0.319380 -0.631096
v 0.059076 0.332647 0.031096
v 0.059076 0.332647 -0.631096
v 0.030117 0.340818 0.031096
v 0.030117 0.340818 -0.631096
v -0.000000 0.343576 0.031096
v -0.000000 0.343576 -0.631096
v -0.030117 0.340818 0.031096
v -0.030117 0.340818 -0.631096
v -0.059076 0.332647 0.031096
v -0.059076 0.332647 -0.631096
v -0.085765 0.319379 0.031096
v -0.085765 0.319379 -0.631096
v -0.109158 0.301524 0.031096
v -0.109158 0.301524 -0.631096
v -0.128357 0.279767 0.031096
v -0.128357 0.279767 -0.631096
v -0.142622 0.254944 0.031096
v -0.142622 0.254944 -0.631096
v -0.151407 0.228010 0.031096
v -0.151407 0.228010 -0.631096
vn -0.994400 -0.105300 0.000000
vn -0.950700 -0.310100 0.000000
vn -0.867000 -0.498300 0.000000
vn -0.749800 -0.661600 0.000000
vn -0.606700 -0.794900 0.000000
vn -0.445200 -0.895500 0.000000
vn -0.271500 -0.962400 0.000000
vn -0.091200 -0.995800 0.000000
vn 0.091200 -0.995800 0.000000
vn 0.271500 -0.962400 0.000000
vn 0.445200 -0.895500 0.000000
vn 0.606700 -0.794900 0.000000
vn 0.749800 -0.661600 -0.000000
vn 0.867000 -0.498300 -0.000000
vn 0.950700 -0.310100 -0.000000
vn 0.994400 -0.105300 -0.000000
vn 0.994400 0.105300 -0.000000
vn 0.950700 0.310100 -0.000000
vn 0.867000 0.498300 -0.000000
vn 0.749800 0.661600 -0.000000
vn 0.606700 0.794900 -0.000000
vn 0.445200 0.895500 -0.000000
vn 0.271500 0.962400 -0.000000
vn 0.091200 0.995800 0.000000
vn -0.091200 0.995800 -0.000000
vn -0.271500 0.962400 -0.000000
vn -0.445200 0.895500 -0.000000
vn -0.606700 0.794900 -0.000000
vn -0.749800 0.661600 -0.000000
vn -0.867000 0.498300 0.000000
vn 0.000000 0.000000 -1.000000
vn -0.994400 0.105300 0.000000
vn -0.950700 0.310100 0.000000
vn 0.000000 0.000000 1.000000
usemtl None
s off
f 1//1 2//1 4//1 3//1
f 3//2 4//2 6//2 5//2
f 5//3 6//3 8//3 7//3
f 7//4 8//4 10//4 9//4
f 9//5 10//5 12//5 11//5
f 11//6 12//6 14//6 13//6
f 13//7 14//7 16//7 15//7
f 15//8 16//8 18//8 17//8
f 17//9 18//9 20//9 19//9
f 19//10 20//10 22//10 21//10
f 21//11 22//11 24//11 23//11
f 23//12 24//12 26//12 25//12
f 25//13 26//13 28//13 27//13
f 27//14 28//14 30//14 29//14
f 29//15 30//15 32//15 31//15
f 31//16 32//16 34//16 33//16
f 33//17 34//17 36//17 35//17
f 35//18 36//18 38//18 37//18
f 37//19 38//19 40//19 39//19
f 39//20 40//20 42//20 41//20
f 41//21 42//21 44//21 43//21
f 43//22 44//22 46//22 45//22
f 45//23 46//23 48//23 47//23
f 47//24 48//24 50//24 49//24
f 49//25 50//25 52//25 51//25
f 51//26 52//26 54//26 53//26
f 53//27 54//27 56//27 55//27
f 55//28 56//28 58//28 57//28
f 57//29 58//29 60//29 59//29
f 59//30 60//30 62//30 61//30
f 4//31 2//31 64//31 62//31 60//31 58//31 56//31 54//31 52//31 50//31 48//31 46//31 44//31 42//31 40//31 38//31 36//31 34//31 32//31 30//31 28//31 26//31 24//31 22//31 20//31 18//31 16//31 14//31 12//31 10//31 8//31 6//31
f 63//32 64//32 2//32 1//32
f 61//33 62//33 64//33 63//33
f 1//34 3//34 5//34 7//34 9//34 11//34 13//34 15//34 17//34 19//34 21//34 23//34 25//34 27//34 29//34 31//34 33//34 35//34 37//34 39//34 41//34 43//34 45//34 47//34 49//34 51//34 53//34 55//34 57//34 59//34 61//34 63//34
o Cone_Cone.001
v -0.032105 -0.041204 0.478946
v 0.000000 0.581205 0.000000
v -0.139176 -0.041204 0.462524
v -0.240898 -0.041204 0.428328
v -0.333364 -0.041204 0.377672
v -0.413018 -0.041204 0.312502
v -0.476800 -0.041204 0.235323
v -0.522259 -0.041204 0.149100
v -0.547648 -0.041204 0.057148
v -0.551991 -0.041204 -0.037001
v -0.535121 -0.041204 -0.129727
v -0.497687 -0.041204 -0.217469
v -0.441127 -0.041204 -0.296853
v -0.367615 -0.041204 -0.364829
v -0.279976 -0.041204 -0.418785
v -0.181577 -0.041204 -0.456648
v -0.076200 -0.041204 -0.476961
v 0.032105 -0.041204 -0.478946
v 0.139176 -0.041204 -0.462524
v 0.240899 -0.041204 -0.428328
v 0.333364 -0.041204 -0.377672
v 0.413018 -0.041204 -0.312502
v 0.476800 -0.041204 -0.235323
v 0.522259 -0.041204 -0.149100
v 0.547648 -0.041204 -0.057147
v 0.551991 -0.041204 0.037001
v 0.535121 -0.041204 0.129728
v 0.497687 -0.041204 0.217469
v 0.441127 -0.041204 0.296853
v 0.367614 -0.041204 0.364830
v 0.279975 -0.041204 0.418786
v 0.181576 -0.041204 0.456648
v 0.076200 -0.041204 0.476961
vn 0.149600 0.612900 0.775900
vn -0.120200 0.609300 0.783800
vn 0.281900 0.619700 0.732500
vn 0.407600 0.628900 0.662100
vn 0.522100 0.639300 0.564600
vn 0.619300 0.649400 0.441300
vn 0.693000 0.657500 0.295700
vn 0.737400 0.662000 0.134200
vn 0.748700 0.662000 -0.034500
vn 0.726300 0.657500 -0.200500
vn 0.672700 0.649400 -0.354700
vn 0.592800 0.639300 -0.489900
vn 0.492300 0.628900 -0.601800
vn 0.377100 0.619700 -0.688300
vn 0.251800 0.612900 -0.749000
vn 0.120200 0.609300 -0.783800
vn -0.014500 0.609300 -0.792800
vn -0.149600 0.612900 -0.775900
vn -0.281900 0.619700 -0.732500
vn -0.407600 0.628900 -0.662100
vn -0.522100 0.639300 -0.564600
vn -0.619300 0.649400 -0.441300
vn -0.693000 0.657500 -0.295700
vn -0.737400 0.662000 -0.134200
vn -0.748700 0.662000 0.034500
vn -0.726300 0.657500 0.200500
vn -0.672700 0.649400 0.354700
vn -0.592700 0.639300 0.489900
vn -0.492300 0.628900 0.601800
vn -0.377100 0.619700 0.688300
vn 0.014500 0.609300 0.792800
vn -0.251800 0.612900 0.749000
vn 0.000000 -1.000000 0.000000
usemtl None
s off
f 96//35 66//35 97//35
f 65//36 66//36 67//36
f 95//37 66//37 96//37
f 94//38 66//38 95//38
f 93//39 66//39 94//39
f 92//40 66//40 93//40
f 91//41 66//41 92//41
f 90//42 66//42 91//42
f 89//43 66//43 90//43
f 88//44 66//44 89//44
f 87//45 66//45 88//45
f 86//46 66//46 87//46
f 85//47 66//47 86//47
f 84//48 66//48 85//48
f 83//49 66//49 84//49
f 82//50 66//50 83//50
f 81//51 66//51 82//51
f 80//52 66//52 81//52
f 79//53 66//53 80//53
f 78//54 66//54 79//54
f 77//55 66//55 78//55
f 76//56 66//56 77//56
f 75//57 66//57 76//57
f 74//58 66//58 75//58
f 73//59 66//59 74//59
f 72//60 66//60 73//60
f 71//61 66//61 72//61
f 70//62 66//62 71//62
f 69//63 66//63 70//63
f 68//64 66//64 69//64
f 97//65 66//65 65//65
f 67//66 66//66 68//66
f 65//67 67//67 68//67 69//67 70//67 71//67 72//67 73//67 74//67 75//67 76//67 77//67 78//67 79//67 80//67 81//67 82//67 83//67 84//67 85//67 86//67 87//67 88//67 89//67 90//67 91//67 92//67 93//67 94//67 95//67 96//67 97//67
o Cube
v 0.563579 -0.670058 -0.507707
v 0.563579 -0.670058 0.507707
v -0.563579 -0.670058 0.507707
v -0.563579 -0.670058 -0.507707
v 0.563579 -0.009942 -0.507707
v 0.563579 -0.009942 0.507708
v -0.563579 -0.009942 0.507707
v -0.563579 -0.009942 -0.507707
vn 0.000000 -1.000000 -0.000000
vn 0.000000 1.000000 -0.000000
vn 1.000000 0.000000 0.000000
vn -0.000000 -0.000000 1.000000
vn -1.000000 -0.000000 -0.000000
vn 0.000000 0.000000 -1.000000
usemtl Material
s off
f 98//68 99//68 100//68 101//68
f 102//69 105//69 104//69 103//69
f 98//70 102//70 103//70 99//70
f 99//71 103//71 104//71 100//71
f 100//72 104//72 105//72 101//72
f 102//73 98//73 101//73 105//73
